<?xml version="1.0" standalone="no"?><!DOCTYPE svg PUBLIC "-//W3C//DTD SVG 1.1//EN" "http://www.w3.org/Graphics/SVG/1.1/DTD/svg11.dtd"><svg t="1521176232386" class="icon" style="" viewBox="0 0 1024 1024" version="1.1" xmlns="http://www.w3.org/2000/svg" p-id="5044" xmlns:xlink="http://www.w3.org/1999/xlink" width="32" height="32"><defs><style type="text/css"></style></defs><path d="M486.4 716.8c-98.816 0-179.2-80.384-179.2-179.2l0-307.2c0-98.816 80.384-179.2 179.2-179.2s179.2 80.384 179.2 179.2l0 307.2c0 98.816-80.384 179.2-179.2 179.2zM486.4 102.4c-70.5536 0-128 57.4464-128 128l0 307.2c0 70.5536 57.4464 128 128 128s128-57.4464 128-128l0-307.2c0-70.5536-57.4464-128-128-128z" p-id="5045" fill="#cdcdcd"></path><path d="M819.2 537.6c0-14.1312-11.4688-25.6-25.6-25.6s-25.6 11.4688-25.6 25.6c0 155.2896-126.3104 281.6-281.6 281.6s-281.6-126.3104-281.6-281.6c0-14.1312-11.4688-25.6-25.6-25.6s-25.6 11.4688-25.6 25.6c0 174.8992 135.6288 318.72 307.2 331.8272l0 103.3728-76.8 0c-14.1312 0-25.6 11.4688-25.6 25.6s11.4688 25.6 25.6 25.6l204.8 0c14.1312 0 25.6-11.4688 25.6-25.6s-11.4688-25.6-25.6-25.6l-76.8 0 0-103.3728c171.5712-13.1072 307.2-156.928 307.2-331.8272z" p-id="5046" fill="#cdcdcd"></path></svg>