<?xml version="1.0" standalone="no"?><!DOCTYPE svg PUBLIC "-//W3C//DTD SVG 1.1//EN" "http://www.w3.org/Graphics/SVG/1.1/DTD/svg11.dtd">
<svg t="1521172489138" class="icon" style="" viewBox="0 0 1024 1024" version="1.1" xmlns="http://www.w3.org/2000/svg" p-id="2836" xmlns:xlink="http://www.w3.org/1999/xlink" width="32" height="32">
	<path d="M158.775678 448.213231c-1.905396 0-3.842515-0.220011-5.747911-0.688685-12.870122-3.185552-20.710694-16.180518-17.555841-29.051663 10.089799-40.952714 23.772426-73.90829 44.326555-106.896612 7.028067-11.214413 21.803585-14.649652 33.081443-7.621585 11.213389 6.997368 14.648628 21.804608 7.653307 33.050744-18.056238 28.863375-29.551036 56.664557-38.4845 92.964298C179.361529 440.902732 169.553139 448.213231 158.775678 448.213231z" p-id="2837" fill="rgb(200,200,200)"></path>
	<path d="M200.166367 724.793454c-8.184403 0-16.213263-4.217045-20.679995-11.835559-19.085684-32.458249-35.048237-71.287603-43.85788-106.677625-0.093121-0.283456-0.186242-0.593518-0.25071-0.876973-3.059686-12.837376 4.686742-26.270317 17.493419-29.394471 12.246929-3.061732 24.617677 4.279467 28.55229 16.024975l0.030699 0.029676 0 0c0.155543 0.533143 0.343831 1.031493 0.468674 1.595334l0 0 0 0.029676c0 0.029676 0 0.029676 0 0.029676 0 0.033769 0.030699 0.033769 0.030699 0.033769 0.030699 0.060375 0.030699 0.092098 0.030699 0.155543 0 0 0 0 0 0.029676l0 0.029676c7.621585 30.894637 22.149463 66.254983 38.861076 94.683453 6.715959 11.402701 2.905166 26.112728-8.497535 32.829709C208.507336 723.732286 204.32099 724.793454 200.166367 724.793454z" p-id="2838" fill="rgb(200,200,200)"></path>
	<path d="M153.996838 623.708198 46.411541 623.708198c-21.617343 0-39.172161-18.209734-39.172161-40.608883L7.23938 440.872033c0-22.398126 17.554818-40.639582 39.172161-40.639582L152.995021 400.23245c13.245675 0 23.991414 10.745738 23.991414 23.991414 0 13.245675-10.745738 23.990391-23.991414 23.990391L55.222207 448.214255l0 127.513162 98.774631 0c13.243629 0 23.989367 10.744715 23.989367 23.991414C177.986205 612.961436 167.240467 623.708198 153.996838 623.708198z" p-id="2839" fill="rgb(200,200,200)"></path>
	<path d="M200.166367 324.292897" p-id="2840" fill="rgb(200,200,200)"></path>
	<path d="M200.166367 324.292897" p-id="2841" fill="rgb(200,200,200)"></path>
	<path d="M200.166367 324.292897" p-id="2842" fill="rgb(200,200,200)"></path>
	<path d="M512.04656 701.114149c-104.334253 0-189.177594-84.84027-189.177594-189.143824 0-104.271832 84.84334-189.083449 189.177594-189.083449 104.270808 0 189.116195 84.811618 189.116195 189.083449C701.161732 616.272855 616.317369 701.114149 512.04656 701.114149zM512.04656 370.867656c-77.843926 0-141.194766 63.288418-141.194766 141.101645 0 77.845972 63.35084 141.16509 141.194766 141.16509 77.783551 0 141.132344-63.319118 141.132344-141.16509C653.177881 434.156074 589.829088 370.867656 512.04656 370.867656z" p-id="2843" fill="rgb(200,200,200)"></path>
	<path d="M324.305689 224.111221c-8.058536 0-15.900132-4.060479-20.430308-11.401678-6.966669-11.276834-3.435239-26.052353 7.809873-33.019021 33.143864-20.398586 67.068512-34.455743 106.771769-44.264133 12.869099-3.092431 25.865087 4.716418 29.051663 17.555841 3.154853 12.870122-4.685719 25.865087-17.554818 29.051663-35.237549 8.653077-63.914682 20.554128-93.091188 38.516222C332.959789 222.955908 328.617901 224.111221 324.305689 224.111221z" p-id="2844" fill="rgb(200,200,200)"></path>
	<path d="M424.204933 890.795209c-1.998517 0-4.060479-0.251733-6.122441-0.813528-37.235043-9.839089-74.064856-25.645077-106.458637-45.700855-11.308557-6.967692-14.774495-21.739117-7.809873-33.020044 6.997368-11.276834 21.805632-14.743796 33.04972-7.779174 28.02017 17.33583 61.22748 31.582299 93.463672 40.141232 12.808724 3.373841 20.461007 16.494673 17.056468 29.30442C444.570773 883.70165 434.825828 890.795209 424.204933 890.795209z" p-id="2845" fill="rgb(200,200,200)"></path>
	<path d="M599.824743 889.294019c-10.776438 0-20.554128-7.278777-23.303752-18.213827-3.183506-12.837376 4.65502-25.862018 17.526165-29.048593 35.018561-8.718569 64.629973-20.961404 93.244684-38.518269 11.308557-6.932899 26.052353-3.403516 32.987299 7.870248 6.933923 11.277858 3.436262 26.052353-7.872295 32.987299-32.9259 20.24202-66.848501 34.299177-106.801445 44.199665C603.668281 889.076054 601.69944 889.294019 599.824743 889.294019z" p-id="2846" fill="rgb(200,200,200)"></path>
	<path d="M825.489342 725.292827c-4.281513 0-8.590656-1.125637-12.497639-3.499707-11.308557-6.901177-14.867616-21.677719-7.995091-32.985252 15.399735-25.209148 27.175943-55.352679 37.111223-94.869694 3.219321-12.867052 16.305361-20.679995 29.112038-17.432021 12.871145 3.252067 20.650319 16.276708 17.429974 29.116131-11.149944 44.35623-24.708751 78.718853-42.668799 108.176768C841.450872 721.201649 833.547879 725.292827 825.489342 725.292827z" p-id="2847" fill="rgb(200,200,200)"></path>
	<path d="M865.346095 448.213231c-10.744715 0-20.552082-7.278777-23.23826-18.212804-8.997931-36.236296-20.556175-64.069201-38.644135-92.993974-7.027044-11.246135-3.592828-26.052353 7.653307-33.050744 11.246135-7.028067 26.052353-3.592828 33.04972 7.621585 20.615527 33.04972 34.362622 66.00632 44.48312 106.865913 3.186576 12.870122-4.624321 25.864064-17.491373 29.051663C869.222379 447.994244 867.286284 448.213231 865.346095 448.213231z" p-id="2848" fill="rgb(200,200,200)"></path>
	<path d="M696.47499 222.237547c-4.121877 0-8.336876-1.062192-12.180414-3.343141-28.208459-16.650215-58.605769-29.051663-90.310865-36.892235-12.837376-3.185552-20.709671-16.21224-17.524119-29.051663 3.184529-12.870122 16.181541-20.678972 29.052686-17.555841 36.235272 8.965186 70.971401 23.178909 103.20964 42.202171 11.370978 6.715959 15.181771 21.430078 8.436136 32.830733C712.688253 218.019479 704.691115 222.237547 696.47499 222.237547z" p-id="2849" fill="rgb(200,200,200)"></path>
	<path d="M583.143828 1016.805134 440.91757 1016.805134c-22.459524 0-40.703027-17.272385-40.703027-38.48143L400.214543 866.801748c0-13.242606 10.745738-23.989367 23.990391-23.989367 13.243629 0 23.990391 10.746762 23.990391 23.989367l0 102.024651 127.639029 0L575.834352 865.302605c0-13.242606 10.744715-23.989367 23.989367-23.989367 13.245675 0 23.990391 10.746762 23.990391 23.989367l0 113.0211C623.816157 999.533772 605.572654 1016.805134 583.143828 1016.805134z" p-id="2850" fill="rgb(200,200,200)"></path>
	<path d="M424.204933 182.720531c-13.244652 0-23.990391-10.745738-23.990391-23.990391L400.214543 46.429449c0-21.649066 18.243503-39.235606 40.703027-39.235606l142.226259 0c22.429849 0 40.672328 17.58654 40.672328 39.235606l-0.062422 112.300692c-0.031722 13.213953-10.746762 23.959691-23.991414 23.959691l-0.031722 0c-13.243629 0-23.988344-10.745738-23.956621-24.022113L575.835376 55.175647 448.195324 55.175647l0 103.554494C448.195324 171.974793 437.448562 182.720531 424.204933 182.720531z" p-id="2851" fill="rgb(200,200,200)"></path>
	<path d="M789.252023 931.685501l-0.028653 0c-10.090822-0.033769-19.49296-3.875261-26.459628-10.872628l-79.876212-79.907934c-9.371438-9.369392-9.371438-24.551162 0-33.920554 9.371438-9.373485 24.553209-9.373485 33.92567 0l73.127508 73.158207 90.184999-90.281189-71.600735-71.595618c-9.368368-9.373485-9.368368-24.553209 0-33.924647 9.371438-9.369392 24.553209-9.369392 33.924647 0l78.408791 78.406744c14.96176 15.059997 14.182001 40.143279-1.719154 55.948243l-100.463086 100.523461C810.775222 927.124626 800.061207 931.685501 789.252023 931.685501z" p-id="2852" fill="rgb(200,200,200)"></path>
	<path d="M200.166367 348.282265c-6.122441 0-12.276604-2.343371-16.962324-7.028067l-79.438237-79.375815c-7.621585-7.621585-11.683087-18.274202-11.184737-29.207206 0.500397-10.246365 4.810562-19.961634 12.215206-27.365254l100.522438-100.523461c7.715729-7.747451 18.368346-12.245905 29.207206-12.245905l0 0c10.402931 0 20.1182 3.998057 27.332509 11.246135l79.375815 79.375815c9.371438 9.370415 9.371438 24.553209 0 33.924647-9.370415 9.371438-24.553209 9.371438-33.923624 0l-73.221652-73.221652-90.245374 90.245374 73.284073 73.222675c9.371438 9.371438 9.371438 24.552186 0.031722 33.924647C212.474694 345.939917 206.288808 348.282265 200.166367 348.282265z" p-id="2853" fill="rgb(200,200,200)"></path>
	<path d="M823.802934 348.282265c-6.123464 0-12.277628-2.343371-16.962324-7.028067-9.339716-9.372461-9.339716-24.584931 0.029676-33.924647l73.28305-73.190953-90.277096-90.308819-73.284073 73.253374c-9.371438 9.371438-24.555256 9.371438-33.923624 0-9.371438-9.371438-9.371438-24.554232 0-33.924647l79.468936-79.407538c15.400758-15.337313 40.735773-14.775518 56.540737 1.030469l100.522438 100.523461c15.807011 15.807011 16.308431 41.141002 1.157359 56.479339l-79.595826 79.469959C836.108191 345.939917 829.956074 348.282265 823.802934 348.282265z" p-id="2854" fill="rgb(200,200,200)"></path>
	<path d="M234.526943 931.46549c-10.80816 0-21.460778-4.464685-29.236881-12.273535l-100.493785-100.525508c-7.840572-7.779174-12.307304-18.49319-12.277628-29.394471 0.063445-10.402931 4.124947-20.1182 11.4334-27.27111l79.345116-78.284971c9.496282-9.245572 24.64633-9.213849 33.95637 0.251733 9.277294 9.43386 9.214872 24.615631-0.218988 33.9226l-73.096808 72.069409 90.153276 90.182952 70.034053-70.004377c9.371438-9.371438 24.584931-9.371438 33.957393 0 9.339716 9.371438 9.339716 24.553209-0.032746 33.924647l-76.218916 76.18617c-7.059789 7.154957-16.743336 11.216459-27.179013 11.216459C234.590388 931.46549 234.590388 931.46549 234.526943 931.46549z" p-id="2855" fill="rgb(200,200,200)"></path>
	<path d="M977.616088 623.708198 868.971669 623.708198c-13.244652 0-23.991414-10.744715-23.991414-23.989367s10.746762-23.991414 23.991414-23.991414l99.804077 0L968.775746 448.213231 865.380888 448.213231c-13.244652 0-23.991414-10.745738-23.991414-23.990391 0-13.244652 10.746762-23.991414 23.991414-23.991414l112.236224 0c21.585621 0 39.143509 18.24248 39.143509 40.640606l0 142.228305C1016.759597 605.498464 999.201709 623.708198 977.616088 623.708198z" p-id="2856" fill="rgb(200,200,200)"></path>
	<path d="M324.305689 200.12083" p-id="2857" fill="rgb(200,200,200)"></path>
</svg>